HIERARCHY
ROOT Hips
{
  OFFSET 0.0 0.0 0.0
  CHANNELS 6 XPOSITION YPOSITION ZPOSITION ZROTATION XROTATION YROTATION 
  JOINT LeftUpLeg
  {
    OFFSET 0.08945800000000001 -0.0866707 0.0010165200000000001
    CHANNELS 3 ZROTATION XROTATION YROTATION 
    JOINT LeftLeg
    {
      OFFSET 0.0 -0.444227 0.013727000000000001
      CHANNELS 3 ZROTATION XROTATION YROTATION 
      JOINT LeftFoot
      {
        OFFSET -0.0025354900000000005 -0.42092399999999996 -0.014605900000000002
        CHANNELS 3 ZROTATION XROTATION YROTATION 
        End Site
        {
          OFFSET -0.0004 -0.0441509 0.08499100000000001
        }
      }
    }
  }
  JOINT Spine
  {
    OFFSET 0.0 0.118905 0.0
    CHANNELS 3 ZROTATION XROTATION YROTATION 
    JOINT Spine1
    {
      OFFSET 0.0 0.25657399999999997 0.00127663
      CHANNELS 3 ZROTATION XROTATION YROTATION 
      End Site
      {
        OFFSET -0.0029 0.21508359999999999 0.02525291
      }
      JOINT RightArm
      {
        OFFSET -0.162727 -0.05365632 0.0010212299999999997
        CHANNELS 3 ZROTATION XROTATION YROTATION 
        JOINT RightForeArm
        {
          OFFSET -0.26364 0.00099144 -0.0142434
          CHANNELS 3 ZROTATION XROTATION YROTATION 
          End Site
          {
            OFFSET -0.220324 0.0008536199999999999 0.010221599999999999
          }
        }
      }
      JOINT LeftArm
      {
        OFFSET 0.162727 -0.053656319900000006 0.0010212299999999997
        CHANNELS 3 ZROTATION XROTATION YROTATION 
        JOINT LeftForeArm
        {
          OFFSET 0.26259699999999997 0.00099144 -0.0142434
          CHANNELS 3 ZROTATION XROTATION YROTATION 
          End Site
          {
            OFFSET 0.220902 0.0008536199999999999 0.010221599999999999
          }
        }
      }
    }
  }
  JOINT RightUpLeg
  {
    OFFSET -0.08945800000000001 -0.0866707 0.0010165200000000001
    CHANNELS 3 ZROTATION XROTATION YROTATION 
    JOINT RightLeg
    {
      OFFSET 0.0 -0.444227 0.013727000000000001
      CHANNELS 3 ZROTATION XROTATION YROTATION 
      JOINT RightFoot
      {
        OFFSET 0.0025354900000000005 -0.42092399999999996 -0.014605900000000002
        CHANNELS 3 ZROTATION XROTATION YROTATION 
        End Site
        {
          OFFSET 0.0004 -0.0441509 0.08499100000000001
        }
      }
    }
  }
}
MOTION
Frames: 11
Frame Time: 0.033333
1.95161 0.9894589400254028 0.0705537 -5.234230093074647 -1.2583799654179861 -89.59099711659947 -1.9704500248368526 3.5245099466417487 1.8009998617180063 -0.11439500976734866 7.6379205110692885 17.168401063784486 -1.121457831169385 -5.817385667994811 0.013915471564796264 3.7532196847732715 6.2827098075616785 1.0172599870079613 -5.616739896502401 0.28751499884268844 2.2855998623397067 77.38482069238303 -8.712507342998226 3.056456506171227 6.30340015810494 29.084598391693437 13.536599944339239 -73.65309902802238 -1.1921059995711176 4.787524622298411 -1.8363599644945738 28.57399906255267 -19.661800893885367 -2.9276098966774025 6.329459891109477 -6.522789676227157 0.6245440133303564 9.221689407886213 -14.851199623702422 4.068009870127643 -9.615995374897404 0.008617096557214342 
1.95144 0.9893389400254027 0.07027409999999999 -5.209959869632653 -1.266929974876667 -89.38019698824536 -1.9782498874255956 3.528550003535811 1.7128700375790376 -0.034167000796677255 7.568769968364787 17.021000458853734 -1.1326779109850118 -5.827655711185572 0.01391568917702446 3.825569744217101 6.207329705447302 1.0539499489602715 -5.644359900845464 0.2891939980788951 2.3338700898646563 77.37436367276375 -8.544986708319907 3.2932779477157865 6.202510153214211 29.104501562934853 13.673200312644909 -73.48388109133532 -2.948688500786296 4.932637967630856 -2.2811100801774815 30.16889775262213 -18.60610124255881 -2.8925200132598734 6.340289582925355 -6.523799690450673 0.6466079789487305 9.233539786096186 -15.060199997210228 4.068019688524575 -9.654495443701473 0.008618082899229494 
1.95127 0.9892389400254027 0.0697782 -5.181209468981953 -1.2951899892893004 -89.09099994859785 -2.0022200094309324 3.4905500326450336 1.5968600215783115 0.0662641941406828 7.559820713004778 16.836600719189022 -1.1745678880515231 -5.824585541153652 0.013915643320041506 3.869440476142916 5.936919954885559 1.1675799642003655 -5.611330386679751 0.5990820285999008 2.457499928936472 77.28510676069001 -8.243004408319779 3.8639344898982397 6.008070035469581 28.960398231825923 13.973099404948181 -73.22020846861614 -5.620240795338856 5.232739404288291 -3.0022399586435466 32.618900268284044 -17.039699809253936 -2.869359909001418 6.355120058047569 -6.54569001985374 0.6895790468948079 9.252330490276536 -15.330798431747793 4.064309615144788 -9.695195687191932 0.00861912426962419 
1.95111 0.9891789400254027 0.0692797 -5.175820449726813 -1.364990040295188 -88.88679778298197 -2.062090032600679 3.4654900685802565 1.497199984346715 0.13465799323980798 7.584949832734901 16.73639842897035 -1.2419177154143743 -5.804085582133504 0.013915108043985946 3.9974898744945535 5.739210310962608 1.3082499513125996 -5.815279835296332 0.8675159868616595 2.654109912403051 77.1953922259419 -7.585410870503877 4.3083650807940375 5.763729836309307 28.258099398344996 14.507900655639242 -72.91388814471941 -7.436410293760049 5.672474240129706 -3.569980010050404 34.3867000745505 -15.894000462781412 -2.9098499107314884 6.355469678355709 -6.612350104832126 0.735506999782119 9.332960019654891 -15.467398800053463 4.049729295700926 -9.774096324936627 0.008621155317087343 
1.9508600000000003 0.9890889400254026 0.0687963 -5.19930989716931 -1.4572799832472234 -88.72100177106908 -2.133979908049179 3.5032398837926824 1.4200399776233155 0.17358600274384772 7.566030208733966 16.642500403355598 -1.2858577097272417 -5.783865660869328 0.0139145669315871 4.270189872862367 5.865550027587625 1.4138999577245914 -6.3391199130299904 0.6607179758352132 2.8667998687231324 77.17186905444038 -6.55177273019646 4.337891134802357 5.506719636238659 27.103899881450392 15.221798857878145 -72.54326841997617 -8.445886639878546 6.243276564162256 -3.93378000435079 35.4404992257405 -15.189900166906892 -2.992329781044681 6.361059761304541 -6.725160070484995 0.7933160133698144 9.473749855242717 -15.514300001536649 4.038628530752363 -9.905194975865852 0.008624580416832266 
1.9506700000000001 0.9889989400254027 0.0681964 -5.232929795811406 -1.5002799727755676 -88.50160243454994 -2.1297599183591687 3.526859958603056 1.3947599534012174 0.20441399486163417 7.590190295375593 16.429900520155197 -1.3090478027850216 -5.795025763086305 0.013914868753911264 4.486499829442555 6.123560423484857 1.4728400079501587 -6.720359728158946 0.2489470016728892 2.9943498094917125 77.14947969434108 -5.703683081994786 4.278698154134087 5.301160397412071 26.26739978360976 15.779299388502094 -72.22705798216127 -9.24951218347026 6.899428505176463 -4.15530993300416 36.08279997000474 -14.74320067254618 -3.0065201393756174 6.415600102487562 -6.807830118877891 0.8713019927351093 9.543019926257694 -15.659900851621103 4.025687883596128 -9.989594769666052 0.008626803229860496 
1.95066 0.9889689400254027 0.0674339 -5.244059589063941 -1.4497099992127336 -88.24499905762173 -2.0150900068179403 3.436009904905424 1.424080034517378 0.25078901831467704 7.763810288982732 16.13099948924439 -1.367938013973989 -5.850226071297879 0.01391628948661948 4.508509687156098 6.167149836994232 1.5093500371065214 -6.668140370633259 0.16373600284682988 3.0171799302358915 77.06983968861873 -5.515764941133871 4.53078976422868 5.185730200438855 26.258100481054786 15.933299663718373 -72.1389485418681 -9.637412286813625 7.546283278069813 -4.135989889163133 36.06110045901161 -14.727100209125169 -2.8749299282695633 6.512749725034062 -6.763349792568652 0.9300969548016667 9.440849687784413 -15.984300686250858 3.9744682950102024 -9.965595192469921 0.008626171237259072 
1.9507700000000001 0.9889489400254028 0.0666727 -5.228650255409569 -1.3777900282432034 -88.02999836292807 -1.8966899582162386 3.2870998281680985 1.4390399630687043 0.3193119840283308 7.978850257264122 15.90430038804979 -1.4490582497555262 -5.911225637001617 0.013917806935873559 4.511819767582615 6.043070059210842 1.5383900804667114 -6.589089895613648 0.335365996826902 3.0335800682067386 77.03556579936361 -5.730884737251185 4.940118732319313 5.133760144817875 26.654299264239718 15.86109944154946 -72.18768877178532 -9.476820879048285 8.072084900755735 -3.86884966477971 35.51989675974732 -15.140700606767998 -2.6931499930383747 6.585609914231526 -6.634750137102006 0.9326610505047718 9.28923058726753 -16.332298824463006 3.9142183425678736 -9.929594972902075 0.008625227417173567 
1.9508400000000001 0.9888689400254027 0.0661014 -5.225209974501999 -1.3886900496631918 -87.8687990683266 -1.8932200086744606 3.22867993953651 1.3810100355500412 0.38835198972606927 8.047229842366058 15.809900343531044 -1.4805783988363714 -5.922755850094244 0.01391810208809111 4.681920079333082 6.053679904312811 1.5683300012500507 -6.913739885921755 0.3333819869555719 3.1319599785774868 77.11115550290813 -5.792673189804059 5.129034080799049 5.090130177060303 26.74240016679642 15.887100264172407 -72.12633318247109 -9.339949864496752 8.393375291765842 -3.5948698597161655 35.188796509541774 -15.521799549245323 -2.6341401468172263 6.593879992655943 -6.593509881780292 0.9248389898012263 9.299039592689315 -16.515100299861935 3.9123882787571334 -9.97939558968793 0.008626541428176001 
1.9509 0.9887889400254026 0.0657109 -5.253650028432285 -1.475800041181713 -87.71369913265394 -1.972340066246242 3.2754897872395463 1.2876600258944788 0.43179100567157186 7.98392081894921 15.745701687974803 -1.4793980567704288 -5.880265670154418 0.013916956497280614 4.896139998027246 6.214379741331224 1.6162599999769691 -7.383889554137236 0.1667919922320949 3.278890154229155 77.18923822549972 -5.622872125716603 5.0966790478138755 5.0327903120912225 26.478799261063532 16.053400002536584 -71.9950227956776 -9.411791501734239 8.48761738816003 -3.4745902284322407 35.11840116486104 -15.662800266923773 -2.7135801560629407 6.574580012495602 -6.697949877492134 0.9695279570452676 9.457620363517732 -16.563299237287424 3.9315076857912916 -10.062195411675058 0.008628741729594417 
1.951 0.9887789400254028 0.0653521 -5.276750155092092 -1.5566800464035362 -87.54260289394513 -2.0300397968072175 3.3092298545223513 1.2223099498545602 0.4530080278328644 7.935039716380367 15.629798500401563 -1.5193578650661768 -5.825835465771764 0.013915622475958345 4.9441199425124704 6.268510271164045 1.6873700599213237 -7.534930649895605 0.18024299592559043 3.390140061986911 77.17955984744582 -5.523522328483714 5.073104649893576 4.941170154564671 26.35410049738661 16.210301400602823 -72.03525944007814 -9.189348462166203 8.412270156331036 -3.3862302055739018 34.68470122803816 -15.87049948939469 -2.791660103890176 6.576350312151105 -6.811000180426423 1.0353700201488385 9.560589734123905 -16.64040012018582 3.8831576304304174 -10.108795231061116 0.00862999070705739 
